<svg xmlns:gliffy="http://www.gliffy.com" xmlns:x="http://ns.adobe.com/Extensibility/1.0/" xmlns:i="http://ns.adobe.com/AdobeIllustrator/10.0/" xmlns:graph="http://ns.adobe.com/Graphs/1.0/" xmlns:a="http://ns.adobe.com/AdobeSVGViewerExtensions/3.0/" xmlns="http://www.w3.org/2000/svg" xmlns:xlink="http://www.w3.org/1999/xlink" width="763" height="457"><rect stroke="#000000" stroke-width="0" fill="#ffffff" x="0" y="0" width="762" height="456"/><g transform='translate(142.0,281.0) rotate(0.0 57.0 57.0)'><rect width="114.0" height="114.0" stroke="#333333" stroke-width="2" fill="#ffffff"/><g ></g></g><g transform='translate(620.25,96.25) rotate(0.0 54.75 34.75)'><defs><linearGradient id='g1' x1='50%' y1='-25%' x2='50%' y2='100%'><stop stop-color='white' offset='0%'/><stop stop-color='#cc4125' offset='100%'/></linearGradient></defs><g transform='translate(-6.0,-6.0)'><path d="M99.5,0 Q109.5,0 109.5,10 L109.5,59.5 Q109.5,69.5 99.5,69.5 L10,69.5 Q0,69.5 0,59.5 L0,10 Q0,0 10,0 Z" stroke="#A8A8A8" stroke-width="0" stroke-opacity=".6" fill-opacity=".6" fill="#A8A8A8"/></g><path d="M99.5,0 Q109.5,0 109.5,10 L109.5,59.5 Q109.5,69.5 99.5,69.5 L10,69.5 Q0,69.5 0,59.5 L0,10 Q0,0 10,0 Z" stroke="#333333" stroke-width="2" style="fill:url(#g1)"/><g  transform='translate(0.0,39.75)'><text x='54.75' style='text-anchor: middle' y='-2.0'><tspan xml:space='preserve' font-size='12' font-family='Arial' fill='#000000' >Tracker</tspan></text></g></g><g transform='translate(418.25,280.5) rotate(0.0 161.75 42.5)'><defs><linearGradient id='g3' x1='50%' y1='-25%' x2='50%' y2='100%'><stop stop-color='white' offset='0%'/><stop stop-color='#f1c232' offset='100%'/></linearGradient></defs><g transform='translate(-6.0,-6.0)'><path d="M313.5,0 Q323.5,0 323.5,10 L323.5,75.0 Q323.5,85.0 313.5,85.0 L10,85.0 Q0,85.0 0,75.0 L0,10 Q0,0 10,0 Z" stroke="#A8A8A8" stroke-width="0" stroke-opacity=".6" fill-opacity=".6" fill="#A8A8A8"/></g><path d="M313.5,0 Q323.5,0 323.5,10 L323.5,75.0 Q323.5,85.0 313.5,85.0 L10,85.0 Q0,85.0 0,75.0 L0,10 Q0,0 10,0 Z" stroke="#333333" stroke-width="2" style="fill:url(#g3)"/><g  transform='translate(0.0,47.5)'><text x='161.75' style='text-anchor: middle' y='-2.0'><tspan xml:space='preserve' font-size='12' font-family='Arial' fill='#000000' >Storage</tspan></text></g></g><g transform='translate(300.25,145.25) rotate(0.0 54.75 29.75)'><defs><linearGradient id='g5' x1='50%' y1='-25%' x2='50%' y2='100%'><stop stop-color='white' offset='0%'/><stop stop-color='#0b5394' offset='100%'/></linearGradient></defs><g transform='translate(-6.0,-6.0)'><path d="M99.5,0 Q109.5,0 109.5,10 L109.5,49.5 Q109.5,59.5 99.5,59.5 L10,59.5 Q0,59.5 0,49.5 L0,10 Q0,0 10,0 Z" stroke="#A8A8A8" stroke-width="0" stroke-opacity=".6" fill-opacity=".6" fill="#A8A8A8"/></g><path d="M99.5,0 Q109.5,0 109.5,10 L109.5,49.5 Q109.5,59.5 99.5,59.5 L10,59.5 Q0,59.5 0,49.5 L0,10 Q0,0 10,0 Z" stroke="#333333" stroke-width="2" style="fill:url(#g5)"/><g  transform='translate(0.0,26.75)'><text x='54.75' style='text-anchor: middle' y='-2.0'><tspan xml:space='preserve' font-size='12' font-family='Arial' fill='#000000' > </tspan></text><text x='54.75' style='text-anchor: middle' y='12.8'><tspan xml:space='preserve' font-size='12' font-family='Arial' fill='#000000' >Search</tspan></text></g></g><g transform='translate(300.25,96.25) rotate(0.0 54.75 34.75)'><defs><linearGradient id='g7' x1='50%' y1='-25%' x2='50%' y2='100%'><stop stop-color='white' offset='0%'/><stop stop-color='#0b5394' offset='100%'/></linearGradient></defs><g transform='translate(-6.0,-6.0)'><path d="M99.5,0 Q109.5,0 109.5,10 L109.5,59.5 Q109.5,69.5 99.5,69.5 L10,69.5 Q0,69.5 0,59.5 L0,10 Q0,0 10,0 Z" stroke="#A8A8A8" stroke-width="0" stroke-opacity=".6" fill-opacity=".6" fill="#A8A8A8"/></g><path d="M99.5,0 Q109.5,0 109.5,10 L109.5,59.5 Q109.5,69.5 99.5,69.5 L10,69.5 Q0,69.5 0,59.5 L0,10 Q0,0 10,0 Z" stroke="#333333" stroke-width="2" style="fill:url(#g7)"/><g  transform='translate(0.0,39.75)'><text x='54.75' style='text-anchor: middle' y='-2.0'><tspan xml:space='preserve' font-size='12' font-family='Arial' fill='#000000' >Webpage</tspan></text></g></g><g transform='translate(410.0,117.0)'><path d='M0.0,0.0 L60.0,0.0 Q70.0,0.0 80.0,0.0 L130.5,0.0 Q140.5,0.0 150.5,0.0 L207.5,0.0 ' stroke-dasharray='15, 9' fill='none' stroke='#000000' stroke-width='2' /><g transform='translate(210.5,0.0) rotate(180.0)'><path d='M9.0,-5.0 L2.0,0 L9.0,5.0 M0,0z' fill='none' stroke='#000000' stroke-width='2.0' /></g><g transform='translate(85.25,0.0)'></g></g><g transform='translate(300.5,117.0)'><path d='M-3.0,0.0 L-24.0,0.0 Q-34.0,0.0 -44.0,0.0 L-58.5,0.0 Q-68.5,0.0 -78.5,0.0 L-102.5,0.0 ' stroke-dasharray='3,6' fill='none' stroke='#000000' stroke-width='2' /><g transform='translate(0.0,0.0) rotate(180.0)'><path d='M9.0,-5.0 L2.0,0 L9.0,5.0 M0,0z' fill='none' stroke='#000000' stroke-width='2.0' /></g><g transform='translate(-31.25,0.0)'></g></g><g transform='translate(430.25,158.25) rotate(0.0 54.75 23.25)'><defs><linearGradient id='g11' x1='50%' y1='-25%' x2='50%' y2='100%'><stop stop-color='white' offset='0%'/><stop stop-color='#6aa84f' offset='100%'/></linearGradient></defs><g transform='translate(-6.0,-6.0)'><path d="M99.5,0 Q109.5,0 109.5,10 L109.5,36.5 Q109.5,46.5 99.5,46.5 L10,46.5 Q0,46.5 0,36.5 L0,10 Q0,0 10,0 Z" stroke="#A8A8A8" stroke-width="0" stroke-opacity=".6" fill-opacity=".6" fill="#A8A8A8"/></g><path d="M99.5,0 Q109.5,0 109.5,10 L109.5,36.5 Q109.5,46.5 99.5,46.5 L10,46.5 Q0,46.5 0,36.5 L0,10 Q0,0 10,0 Z" stroke="#333333" stroke-width="2" style="fill:url(#g11)"/><g  transform='translate(0.0,28.25)'><text x='54.75' style='text-anchor: middle' y='-2.0'><tspan xml:space='preserve' font-size='12' font-family='Arial' fill='#000000' >Recommender</tspan></text></g></g><g transform='translate(430.25,284.75) rotate(0.0 54.75 23.25)'><defs><linearGradient id='g13' x1='50%' y1='-25%' x2='50%' y2='100%'><stop stop-color='white' offset='0%'/><stop stop-color='#6aa84f' offset='100%'/></linearGradient></defs><g transform='translate(-6.0,-6.0)'><path d="M99.5,0 Q109.5,0 109.5,10 L109.5,36.5 Q109.5,46.5 99.5,46.5 L10,46.5 Q0,46.5 0,36.5 L0,10 Q0,0 10,0 Z" stroke="#A8A8A8" stroke-width="0" stroke-opacity=".6" fill-opacity=".6" fill="#A8A8A8"/></g><path d="M99.5,0 Q109.5,0 109.5,10 L109.5,36.5 Q109.5,46.5 99.5,46.5 L10,46.5 Q0,46.5 0,36.5 L0,10 Q0,0 10,0 Z" stroke="#333333" stroke-width="2" style="fill:url(#g13)"/><g  transform='translate(0.0,28.25)'><text x='54.75' style='text-anchor: middle' y='-2.0'><tspan xml:space='preserve' font-size='12' font-family='Arial' fill='#000000' >Modell-Prep.</tspan></text></g></g><g transform='translate(622.25,311.75) rotate(0.0 54.75 23.25)'><defs><linearGradient id='g15' x1='50%' y1='-25%' x2='50%' y2='100%'><stop stop-color='white' offset='0%'/><stop stop-color='#ea9999' offset='100%'/></linearGradient></defs><g transform='translate(-6.0,-6.0)'><path d="M99.5,0 Q109.5,0 109.5,10 L109.5,36.5 Q109.5,46.5 99.5,46.5 L10,46.5 Q0,46.5 0,36.5 L0,10 Q0,0 10,0 Z" stroke="#A8A8A8" stroke-width="0" stroke-opacity=".6" fill-opacity=".6" fill="#A8A8A8"/></g><path d="M99.5,0 Q109.5,0 109.5,10 L109.5,36.5 Q109.5,46.5 99.5,46.5 L10,46.5 Q0,46.5 0,36.5 L0,10 Q0,0 10,0 Z" stroke="#333333" stroke-width="2" style="fill:url(#g15)"/><g  transform='translate(0.0,28.25)'><text x='54.75' style='text-anchor: middle' y='-2.0'><tspan xml:space='preserve' font-size='12' font-family='Arial' fill='#000000' >Profil-Collector</tspan></text></g></g><g transform='translate(675.0,312.5)'><path d='M0.0,-3.0 L0.0,-39.0 Q0.0,-49.0 0.0,-59.0 L0.0,-88.0 Q0.0,-98.0 0.0,-108.0 L0.0,-146.5 ' stroke-dasharray='3,6' fill='none' stroke='#000000' stroke-width='2' /><g transform='translate(0.0,0.0) rotate(270.0)'><path d='M9.0,-5.0 L2.0,0 L9.0,5.0 M0,0z' fill='none' stroke='#000000' stroke-width='2.0' /></g><g transform='translate(0.0,-53.25)'></g></g><g transform='translate(507.0,331.5)'><path d='M0.0,0.0 Q0.0,40.0 37.0,40.0 Q74.0,40.0 74.0,-9.75 Q74.0,-59.5 111.0,-59.5 Q148.0,-59.5 148.0,-19.5 ' stroke-dasharray='3,6' fill='none' stroke='#000000' stroke-width='2' /><g transform='translate(0.0,0.0) rotate(86.0)'><path d='M9.0,-5.0 L2.0,0 L9.0,5.0 M0,0z' fill='none' stroke='#000000' stroke-width='2.0' /></g><g transform='translate(0.0,0.0)'></g></g><g transform='translate(463.0,157.5)'><path d='M0.0,0.0 L-123.5,0.0 Q-133.5,0.0 -143.5,0.0 L-262.0,0.0 ' stroke-dasharray='15, 9' fill='none' stroke='#000000' stroke-width='2' /><g transform='translate(-265.0,0.0) rotate(360.0)'><path d='M9.0,-5.0 L2.0,0 L9.0,5.0 M0,0z' fill='none' stroke='#000000' stroke-width='2.0' /></g><g transform='translate(-122.5,0.0)'></g></g><g transform='translate(507.0,284.5)'><path d='M0.0,0.0 L0.0,-16.5 Q0.0,-26.5 0.0,-36.5 L0.0,-43.5 Q0.0,-53.5 0.0,-63.5 L0.0,-77.0 ' stroke-dasharray='3,6' fill='none' stroke='#000000' stroke-width='2' /><g transform='translate(0.0,-80.0) rotate(450.0)'><path d='M9.0,-5.0 L2.0,0 L9.0,5.0 M0,0z' fill='none' stroke='#000000' stroke-width='2.0' /></g><g transform='translate(0.0,-20.0)'></g></g><g transform='translate(126.75,93.0) rotate(0.0 31.25 50.0)'><circle cx='31.043046357615896' cy='9.960159362549799' r='10.347682119205299'  stroke="#000000" stroke-width="2.0" fill="#ffffff"/><line x1='31.043046357615896' y1='19.920318725099598' x2='31.043046357615896' y2='59.7609561752988'  stroke="#000000" stroke-width="2.0" fill="#ffffff"/><line x1='31.043046357615896' y1='59.7609561752988' x2='20.695364238410598' y2='99.601593625498'  stroke="#000000" stroke-width="2.0" fill="#ffffff"/><line x1='31.043046357615896' y1='59.7609561752988' x2='41.390728476821195' y2='99.601593625498'  stroke="#000000" stroke-width="2.0" fill="#ffffff"/><line x1='31.043046357615896' y1='59.7609561752988' x2='41.390728476821195' y2='99.601593625498'  stroke="#000000" stroke-width="2.0" fill="#ffffff"/><line x1='0.0' y1='29.8804780876494' x2='62.08609271523179' y2='29.8804780876494'  stroke="#000000" stroke-width="2.0" fill="#ffffff"/><g  transform='translate(0.0,117.0)'><text x='31.25' style='text-anchor: middle' y='-2.0'><tspan xml:space='preserve' font-size='12' font-family='Arial' fill='#000000' >User</tspan></text></g></g><g transform='translate(300.0,175.0)'><path d='M0.0,0.0 L-41.0,0.0 Q-51.0,0.0 -61.0,0.0 L-99.5,0.0 ' stroke-dasharray='15, 9' fill='none' stroke='#000000' stroke-width='2' /><g transform='translate(-102.5,0.0) rotate(360.0)'><path d='M9.0,-5.0 L2.0,0 L9.0,5.0 M0,0z' fill='none' stroke='#000000' stroke-width='2.0' /></g><g transform='translate(-41.25,0.0)'></g></g><g transform='translate(463.0,285.5)'><path d='M0.0,0.0 Q0.0,-40.5 -43.0,-40.5 Q-86.0,-40.5 -86.0,-80.5 ' stroke-dasharray='3,6' fill='none' stroke='#000000' stroke-width='2' /><g transform='translate(-86.0,-80.5) rotate(85.5)'><path d='M9.0,-5.0 L2.0,0 L9.0,5.0 M0,0z' fill='none' stroke='#000000' stroke-width='2.0' /></g><g transform='translate(0.0,0.0)'></g></g><g transform='translate(252.0,337.0)'><path d='M-5.0,0.0 L-43.0,0.0 Q-53.0,0.0 -63.0,0.0 L-104.0,0.0 ' stroke-dasharray='3,6' fill='none' stroke='#000000' stroke-width='2' /><g transform='translate(-2.0,0.0) rotate(180.0)'><path d='M9.0,-5.0 L2.0,0 L9.0,5.0 M0,0z' fill='none' stroke='#000000' stroke-width='2.0' /></g><g transform='translate(-41.0,0.0)'></g></g><g transform='translate(252.0,377.0)'><path d='M-5.0,0.0 L-43.0,0.0 Q-53.0,0.0 -63.0,0.0 L-104.0,0.0 ' stroke-dasharray='15, 9' fill='none' stroke='#000000' stroke-width='2' /><g transform='translate(-2.0,0.0) rotate(180.0)'><path d='M9.0,-5.0 L2.0,0 L9.0,5.0 M0,0z' fill='none' stroke='#000000' stroke-width='2.0' /></g><g transform='translate(-41.0,0.0)'></g></g><g transform='translate(138.5,306.0) rotate(0.0 58.5 14.0)'><g  transform='translate(0.0,11.0)'><text x='58.5' style='text-anchor: middle' y='-2.0'><tspan xml:space='preserve' font-size='12' font-family='Arial' fill='#000000' >asynchron</tspan></text><text x='58.5' style='text-anchor: middle' y='12.8'><tspan xml:space='preserve' font-size='12' font-family='Arial' fill='#000000' >Dataflow</tspan></text></g></g><g transform='translate(138.5,346.0) rotate(0.0 58.5 14.0)'><g  transform='translate(0.0,11.0)'><text x='58.5' style='text-anchor: middle' y='-2.0'><tspan xml:space='preserve' font-size='12' font-family='Arial' fill='#000000' >synchron</tspan></text><text x='58.5' style='text-anchor: middle' y='12.8'><tspan xml:space='preserve' font-size='12' font-family='Arial' fill='#000000' >Dataflow</tspan></text></g></g><g transform='translate(677.0,358.5)'><path d='M0.0,0.0 Q0.0,55.5 -34.5,55.5' stroke-dasharray='6, 12' fill='none' stroke='#000000' stroke-width='2' /><g transform='translate(0.0,0.0) rotate(92.0)'><path d='M9.0,-5.0 L2.0,0 L9.0,5.0 M0,0z' fill='none' stroke='#000000' stroke-width='2.0' /></g><g transform='translate(-34.5,55.5) rotate(352.5)'><path d='M9.0,-5.0 L2.0,0 L9.0,5.0 M0,0z' fill='none' stroke='#000000' stroke-width='2.0' /></g><g transform='translate(0.0,0.0)'></g></g><g transform='translate(517.5,391.75) rotate(0.0 62.5 22.25)'><rect width="125.0" height="44.5" stroke="#333333" stroke-width="2" fill="#ffffff"/><g  transform='translate(0.0,19.25)'><text x='62.5' style='text-anchor: middle' y='-2.0'><tspan xml:space='preserve' font-size='12' font-family='Arial' fill='#000000' >statistical</tspan></text><text x='62.5' style='text-anchor: middle' y='12.8'><tspan xml:space='preserve' font-size='12' font-family='Arial' fill='#000000' >Summaries</tspan></text></g></g><g transform='translate(430.0,256.25) rotate(0.0 55.0 9.75)'><rect width="110.0" height="19.5" stroke="#333333" stroke-width="2" fill="#ffffff"/><g  transform='translate(0.0,14.75)'><text x='55.0' style='text-anchor: middle' y='-2.0'><tspan xml:space='preserve' font-size='12' font-family='Arial' fill='#000000' >Qualitychecks</tspan></text></g></g></svg>