<svg xmlns:gliffy="http://www.gliffy.com" xmlns:x="http://ns.adobe.com/Extensibility/1.0/" xmlns:i="http://ns.adobe.com/AdobeIllustrator/10.0/" xmlns:graph="http://ns.adobe.com/Graphs/1.0/" xmlns:a="http://ns.adobe.com/AdobeSVGViewerExtensions/3.0/" xmlns="http://www.w3.org/2000/svg" xmlns:xlink="http://www.w3.org/1999/xlink" width="794" height="457"><rect stroke="#000000" stroke-width="0" fill="#ffffff" x="0" y="0" width="793" height="456"/><g transform='translate(142.0,281.0) rotate(0.0 57.0 57.0)'><rect width="114.0" height="114.0" stroke="#333333" stroke-width="2" fill="#ffffff"/><g ></g></g><g transform='translate(659.25,96.25) rotate(0.0 54.75 34.75)'><defs><linearGradient id='g1' x1='50%' y1='-25%' x2='50%' y2='100%'><stop stop-color='white' offset='0%'/><stop stop-color='#cccccc' offset='100%'/></linearGradient></defs><g transform='translate(-6.0,-6.0)'><path d="M99.5,0 Q109.5,0 109.5,10 L109.5,59.5 Q109.5,69.5 99.5,69.5 L10,69.5 Q0,69.5 0,59.5 L0,10 Q0,0 10,0 Z" stroke="#A8A8A8" stroke-width="0" stroke-opacity=".6" fill-opacity=".6" fill="#A8A8A8"/></g><path d="M99.5,0 Q109.5,0 109.5,10 L109.5,59.5 Q109.5,69.5 99.5,69.5 L10,69.5 Q0,69.5 0,59.5 L0,10 Q0,0 10,0 Z" stroke="#333333" stroke-width="2" style="fill:url(#g1)"/><g  transform='translate(0.0,39.75)'><text x='54.75' style='text-anchor: middle' y='-2.0'><tspan xml:space='preserve' font-size='12' font-family='Arial' fill='#000000' >Tracker</tspan></text></g></g><g transform='translate(418.5,278.5) rotate(0.0 174.0 44.5)'><defs><linearGradient id='g3' x1='50%' y1='-25%' x2='50%' y2='100%'><stop stop-color='white' offset='0%'/><stop stop-color='#cccccc' offset='100%'/></linearGradient></defs><g transform='translate(-6.0,-6.0)'><path d="M338.0,0 Q348.0,0 348.0,10 L348.0,79.0 Q348.0,89.0 338.0,89.0 L10,89.0 Q0,89.0 0,79.0 L0,10 Q0,0 10,0 Z" stroke="#A8A8A8" stroke-width="0" stroke-opacity=".6" fill-opacity=".6" fill="#A8A8A8"/></g><path d="M338.0,0 Q348.0,0 348.0,10 L348.0,79.0 Q348.0,89.0 338.0,89.0 L10,89.0 Q0,89.0 0,79.0 L0,10 Q0,0 10,0 Z" stroke="#333333" stroke-width="2" style="fill:url(#g3)"/><g  transform='translate(0.0,49.5)'><text x='174.0' style='text-anchor: middle' y='-2.0'><tspan xml:space='preserve' font-size='12' font-family='Arial' fill='#000000' >Datenhaltung</tspan></text></g></g><g transform='translate(300.25,145.25) rotate(0.0 54.75 29.75)'><defs><linearGradient id='g5' x1='50%' y1='-25%' x2='50%' y2='100%'><stop stop-color='white' offset='0%'/><stop stop-color='#cccccc' offset='100%'/></linearGradient></defs><g transform='translate(-6.0,-6.0)'><path d="M99.5,0 Q109.5,0 109.5,10 L109.5,49.5 Q109.5,59.5 99.5,59.5 L10,59.5 Q0,59.5 0,49.5 L0,10 Q0,0 10,0 Z" stroke="#A8A8A8" stroke-width="0" stroke-opacity=".6" fill-opacity=".6" fill="#A8A8A8"/></g><path d="M99.5,0 Q109.5,0 109.5,10 L109.5,49.5 Q109.5,59.5 99.5,59.5 L10,59.5 Q0,59.5 0,49.5 L0,10 Q0,0 10,0 Z" stroke="#333333" stroke-width="2" style="fill:url(#g5)"/><g  transform='translate(0.0,26.75)'><text x='54.75' style='text-anchor: middle' y='-2.0'><tspan xml:space='preserve' font-size='12' font-family='Arial' fill='#000000' > </tspan></text><text x='54.75' style='text-anchor: middle' y='12.8'><tspan xml:space='preserve' font-size='12' font-family='Arial' fill='#000000' >Suche</tspan></text></g></g><g transform='translate(300.25,96.25) rotate(0.0 54.75 34.75)'><defs><linearGradient id='g7' x1='50%' y1='-25%' x2='50%' y2='100%'><stop stop-color='white' offset='0%'/><stop stop-color='#cccccc' offset='100%'/></linearGradient></defs><g transform='translate(-6.0,-6.0)'><path d="M99.5,0 Q109.5,0 109.5,10 L109.5,59.5 Q109.5,69.5 99.5,69.5 L10,69.5 Q0,69.5 0,59.5 L0,10 Q0,0 10,0 Z" stroke="#A8A8A8" stroke-width="0" stroke-opacity=".6" fill-opacity=".6" fill="#A8A8A8"/></g><path d="M99.5,0 Q109.5,0 109.5,10 L109.5,59.5 Q109.5,69.5 99.5,69.5 L10,69.5 Q0,69.5 0,59.5 L0,10 Q0,0 10,0 Z" stroke="#333333" stroke-width="2" style="fill:url(#g7)"/><g  transform='translate(0.0,39.75)'><text x='54.75' style='text-anchor: middle' y='-2.0'><tspan xml:space='preserve' font-size='12' font-family='Arial' fill='#000000' >Webseite</tspan></text></g></g><g transform='translate(410.0,117.0)'><path d='M0.0,0.0 L73.0,0.0 Q83.0,0.0 93.0,0.0 L156.5,0.0 Q166.5,0.0 176.5,0.0 L246.5,0.0 ' stroke-dasharray='15, 9' fill='none' stroke='#000000' stroke-width='2' /><g transform='translate(249.5,0.0) rotate(180.0)'><path d='M9.0,-5.0 L2.0,0 L9.0,5.0 M0,0z' fill='none' stroke='#000000' stroke-width='2.0' /></g><g transform='translate(104.75,0.0)'></g></g><g transform='translate(300.5,117.0)'><path d='M-3.0,0.0 L-24.0,0.0 Q-34.0,0.0 -44.0,0.0 L-58.5,0.0 Q-68.5,0.0 -78.5,0.0 L-102.5,0.0 ' stroke-dasharray='3,6' fill='none' stroke='#000000' stroke-width='2' /><g transform='translate(0.0,0.0) rotate(180.0)'><path d='M9.0,-5.0 L2.0,0 L9.0,5.0 M0,0z' fill='none' stroke='#000000' stroke-width='2.0' /></g><g transform='translate(-31.25,0.0)'></g></g><g transform='translate(423.0,158.25) rotate(0.0 66.0 23.25)'><defs><linearGradient id='g11' x1='50%' y1='-25%' x2='50%' y2='100%'><stop stop-color='white' offset='0%'/><stop stop-color='#cccccc' offset='100%'/></linearGradient></defs><g transform='translate(-6.0,-6.0)'><path d="M122.0,0 Q132.0,0 132.0,10 L132.0,36.5 Q132.0,46.5 122.0,46.5 L10,46.5 Q0,46.5 0,36.5 L0,10 Q0,0 10,0 Z" stroke="#A8A8A8" stroke-width="0" stroke-opacity=".6" fill-opacity=".6" fill="#A8A8A8"/></g><path d="M122.0,0 Q132.0,0 132.0,10 L132.0,36.5 Q132.0,46.5 122.0,46.5 L10,46.5 Q0,46.5 0,36.5 L0,10 Q0,0 10,0 Z" stroke="#333333" stroke-width="2" style="fill:url(#g11)"/><g  transform='translate(0.0,28.25)'><text x='66.0' style='text-anchor: middle' y='-2.0'><tspan xml:space='preserve' font-size='12' font-family='Arial' fill='#000000' >Empfehlungsdienst</tspan></text></g></g><g transform='translate(413.0,284.75) rotate(0.0 66.0 23.25)'><defs><linearGradient id='g13' x1='50%' y1='-25%' x2='50%' y2='100%'><stop stop-color='white' offset='0%'/><stop stop-color='#cccccc' offset='100%'/></linearGradient></defs><g transform='translate(-6.0,-6.0)'><path d="M122.0,0 Q132.0,0 132.0,10 L132.0,36.5 Q132.0,46.5 122.0,46.5 L10,46.5 Q0,46.5 0,36.5 L0,10 Q0,0 10,0 Z" stroke="#A8A8A8" stroke-width="0" stroke-opacity=".6" fill-opacity=".6" fill="#A8A8A8"/></g><path d="M122.0,0 Q132.0,0 132.0,10 L132.0,36.5 Q132.0,46.5 122.0,46.5 L10,46.5 Q0,46.5 0,36.5 L0,10 Q0,0 10,0 Z" stroke="#333333" stroke-width="2" style="fill:url(#g13)"/><g  transform='translate(0.0,28.25)'><text x='66.0' style='text-anchor: middle' y='-2.0'><tspan xml:space='preserve' font-size='12' font-family='Arial' fill='#000000' >Modellberechnung</tspan></text></g></g><g transform='translate(661.25,311.75) rotate(0.0 54.75 23.25)'><defs><linearGradient id='g15' x1='50%' y1='-25%' x2='50%' y2='100%'><stop stop-color='white' offset='0%'/><stop stop-color='#cccccc' offset='100%'/></linearGradient></defs><g transform='translate(-6.0,-6.0)'><path d="M99.5,0 Q109.5,0 109.5,10 L109.5,36.5 Q109.5,46.5 99.5,46.5 L10,46.5 Q0,46.5 0,36.5 L0,10 Q0,0 10,0 Z" stroke="#A8A8A8" stroke-width="0" stroke-opacity=".6" fill-opacity=".6" fill="#A8A8A8"/></g><path d="M99.5,0 Q109.5,0 109.5,10 L109.5,36.5 Q109.5,46.5 99.5,46.5 L10,46.5 Q0,46.5 0,36.5 L0,10 Q0,0 10,0 Z" stroke="#333333" stroke-width="2" style="fill:url(#g15)"/><g  transform='translate(0.0,28.25)'><text x='54.75' style='text-anchor: middle' y='-2.0'><tspan xml:space='preserve' font-size='12' font-family='Arial' fill='#000000' >Aufbereitung</tspan></text></g></g><g transform='translate(714.0,312.5)'><path d='M0.0,-3.0 L0.0,-39.0 Q0.0,-49.0 0.0,-59.0 L0.0,-88.0 Q0.0,-98.0 0.0,-108.0 L0.0,-146.5 ' stroke-dasharray='3,6' fill='none' stroke='#000000' stroke-width='2' /><g transform='translate(0.0,0.0) rotate(270.0)'><path d='M9.0,-5.0 L2.0,0 L9.0,5.0 M0,0z' fill='none' stroke='#000000' stroke-width='2.0' /></g><g transform='translate(0.0,-53.25)'></g></g><g transform='translate(505.0,331.5)'><path d='M0.0,0.0 Q0.0,40.0 47.25,40.0 Q94.5,40.0 94.5,-9.75 Q94.5,-59.5 141.75,-59.5 Q189.0,-59.5 189.0,-19.5 ' stroke-dasharray='3,6' fill='none' stroke='#000000' stroke-width='2' /><g transform='translate(0.0,0.0) rotate(85.0)'><path d='M9.0,-5.0 L2.0,0 L9.0,5.0 M0,0z' fill='none' stroke='#000000' stroke-width='2.0' /></g><g transform='translate(0.0,0.0)'></g></g><g transform='translate(462.5,157.5)'><path d='M0.0,0.0 L-123.0,0.0 Q-133.0,0.0 -143.0,0.0 L-261.5,0.0 ' stroke-dasharray='15, 9' fill='none' stroke='#000000' stroke-width='2' /><g transform='translate(-264.5,0.0) rotate(360.0)'><path d='M9.0,-5.0 L2.0,0 L9.0,5.0 M0,0z' fill='none' stroke='#000000' stroke-width='2.0' /></g><g transform='translate(-122.25,0.0)'></g></g><g transform='translate(505.0,284.5)'><path d='M0.0,0.0 L0.0,-30.0 Q0.0,-40.0 5.0,-40.0 L5.0,-40.0 Q10.0,-40.0 10.0,-45.0 L10.0,-77.0 ' stroke-dasharray='3,6' fill='none' stroke='#000000' stroke-width='2' /><g transform='translate(10.0,-80.0) rotate(450.0)'><path d='M9.0,-5.0 L2.0,0 L9.0,5.0 M0,0z' fill='none' stroke='#000000' stroke-width='2.0' /></g><g transform='translate(0.0,-32.5)'></g></g><g transform='translate(126.75,93.0) rotate(0.0 31.25 50.0)'><circle cx='31.043046357615896' cy='9.960159362549799' r='10.347682119205299'  stroke="#000000" stroke-width="2.0" fill="#ffffff"/><line x1='31.043046357615896' y1='19.920318725099598' x2='31.043046357615896' y2='59.7609561752988'  stroke="#000000" stroke-width="2.0" fill="#ffffff"/><line x1='31.043046357615896' y1='59.7609561752988' x2='20.695364238410598' y2='99.601593625498'  stroke="#000000" stroke-width="2.0" fill="#ffffff"/><line x1='31.043046357615896' y1='59.7609561752988' x2='41.390728476821195' y2='99.601593625498'  stroke="#000000" stroke-width="2.0" fill="#ffffff"/><line x1='31.043046357615896' y1='59.7609561752988' x2='41.390728476821195' y2='99.601593625498'  stroke="#000000" stroke-width="2.0" fill="#ffffff"/><line x1='0.0' y1='29.8804780876494' x2='62.08609271523179' y2='29.8804780876494'  stroke="#000000" stroke-width="2.0" fill="#ffffff"/><g  transform='translate(0.0,117.0)'><text x='31.25' style='text-anchor: middle' y='-2.0'><tspan xml:space='preserve' font-size='12' font-family='Arial' fill='#000000' >Nutzer</tspan></text></g></g><g transform='translate(300.0,175.0)'><path d='M0.0,0.0 L-41.0,0.0 Q-51.0,0.0 -61.0,0.0 L-99.5,0.0 ' stroke-dasharray='15, 9' fill='none' stroke='#000000' stroke-width='2' /><g transform='translate(-102.5,0.0) rotate(360.0)'><path d='M9.0,-5.0 L2.0,0 L9.0,5.0 M0,0z' fill='none' stroke='#000000' stroke-width='2.0' /></g><g transform='translate(-41.25,0.0)'></g></g><g transform='translate(452.0,285.5)'><path d='M0.0,0.0 Q0.0,-40.5 -37.75,-40.5 Q-75.5,-40.5 -75.5,-80.5 ' stroke-dasharray='3,6' fill='none' stroke='#000000' stroke-width='2' /><g transform='translate(-75.5,-80.5) rotate(86.0)'><path d='M9.0,-5.0 L2.0,0 L9.0,5.0 M0,0z' fill='none' stroke='#000000' stroke-width='2.0' /></g><g transform='translate(0.0,0.0)'></g></g><g transform='translate(252.0,337.0)'><path d='M-5.0,0.0 L-43.0,0.0 Q-53.0,0.0 -63.0,0.0 L-104.0,0.0 ' stroke-dasharray='3,6' fill='none' stroke='#000000' stroke-width='2' /><g transform='translate(-2.0,0.0) rotate(180.0)'><path d='M9.0,-5.0 L2.0,0 L9.0,5.0 M0,0z' fill='none' stroke='#000000' stroke-width='2.0' /></g><g transform='translate(-41.0,0.0)'></g></g><g transform='translate(252.0,377.0)'><path d='M-5.0,0.0 L-43.0,0.0 Q-53.0,0.0 -63.0,0.0 L-104.0,0.0 ' stroke-dasharray='15, 9' fill='none' stroke='#000000' stroke-width='2' /><g transform='translate(-2.0,0.0) rotate(180.0)'><path d='M9.0,-5.0 L2.0,0 L9.0,5.0 M0,0z' fill='none' stroke='#000000' stroke-width='2.0' /></g><g transform='translate(-41.0,0.0)'></g></g><g transform='translate(138.5,306.0) rotate(0.0 58.5 14.0)'><g  transform='translate(0.0,11.0)'><text x='58.5' style='text-anchor: middle' y='-2.0'><tspan xml:space='preserve' font-size='12' font-family='Arial' fill='#000000' >asynchroner</tspan></text><text x='58.5' style='text-anchor: middle' y='12.8'><tspan xml:space='preserve' font-size='12' font-family='Arial' fill='#000000' >Austausch</tspan></text></g></g><g transform='translate(138.5,346.0) rotate(0.0 58.5 14.0)'><g  transform='translate(0.0,11.0)'><text x='58.5' style='text-anchor: middle' y='-2.0'><tspan xml:space='preserve' font-size='12' font-family='Arial' fill='#000000' >synchroner</tspan></text><text x='58.5' style='text-anchor: middle' y='12.8'><tspan xml:space='preserve' font-size='12' font-family='Arial' fill='#000000' >Austausch</tspan></text></g></g><g transform='translate(716.0,358.5)'><path d='M0.0,0.0 Q0.0,55.5 -73.5,55.5' stroke-dasharray='6, 12' fill='none' stroke='#000000' stroke-width='2' /><g transform='translate(0.0,0.0) rotate(93.5)'><path d='M9.0,-5.0 L2.0,0 L9.0,5.0 M0,0z' fill='none' stroke='#000000' stroke-width='2.0' /></g><g transform='translate(-73.5,55.5) rotate(358.5)'><path d='M9.0,-5.0 L2.0,0 L9.0,5.0 M0,0z' fill='none' stroke='#000000' stroke-width='2.0' /></g><g transform='translate(0.0,0.0)'></g></g><g transform='translate(517.5,391.75) rotate(0.0 62.5 22.25)'><rect width="125.0" height="44.5" stroke="#333333" stroke-width="2" fill="#ffffff"/><g  transform='translate(0.0,19.25)'><text x='62.5' style='text-anchor: middle' y='-2.0'><tspan xml:space='preserve' font-size='12' font-family='Arial' fill='#000000' >statistische</tspan></text><text x='62.5' style='text-anchor: middle' y='12.8'><tspan xml:space='preserve' font-size='12' font-family='Arial' fill='#000000' >Auswertung</tspan></text></g></g><g transform='translate(423.0,256.25) rotate(0.0 66.0 9.75)'><rect width="132.0" height="19.5" stroke="#333333" stroke-width="2" fill="#ffffff"/><g  transform='translate(0.0,14.75)'><text x='66.0' style='text-anchor: middle' y='-2.0'><tspan xml:space='preserve' font-size='12' font-family='Arial' fill='#000000' >QA</tspan></text></g></g></svg>